<svg xmlns="http://www.w3.org/2000/svg" width="700" height="700" version="1.1" style=""><rect id="backgroundrect" width="100%" height="100%" x="0" y="0" fill="none" stroke="none"/>
 
<g class="currentLayer" style=""><title>Layer 1</title><path d="m379.91 34.898c-9.0078-0.015626-18.91 0.10156-29.906 0.10156h-70c-26.211 0-46.121-0.046875-62.582 1.8125-16.465 1.8594-30.918 5.8867-41.598 16.578-10.676 10.691-14.695 25.145-16.543 41.598s-1.7773 36.34-1.7773 62.516v175-0.003906 0.17188 0.20312c0 44.578-1.8945 71.18 10.32 93.414 6.1094 11.117 17.09 19.266 29.156 23.172 9.3086 3.0156 19.918 4.1523 31.719 4.8516 0.23047 3.4883 0.25391 7.5625 0.61328 10.766 1.8594 16.461 5.8867 30.918 16.578 41.598 10.691 10.676 25.145 14.695 41.598 16.543s36.34 1.7773 62.516 1.7773h70c26.211 0 46.121 0.046875 62.582-1.8125 16.461-1.8594 30.918-5.8867 41.598-16.578 10.68-10.688 14.695-25.145 16.543-41.598 1.8477-16.453 1.7773-36.34 1.7773-62.516v-175c0-26.211 0.046875-46.121-1.8125-62.582-1.8594-16.461-5.8867-30.918-16.578-41.598-10.688-10.68-25.145-14.695-41.598-16.543-3.2969-0.37109-7.4766-0.38281-11.074-0.61328-0.72656-12.379-1.9453-23.348-5.2969-33.016-4.0938-11.82-12.508-22.438-23.586-28.266-16.617-8.7422-35.625-9.9336-62.652-9.9805zm-99.906 35.102h70c43.977 0 68.707 1.875 76.254 5.8438 3.7734 1.9844 4.8242 3.043 6.8008 8.75 1.4336 4.1328 2.4336 11.547 3.1797 20.508-5.4453-0.015624-10.145-0.10156-16.234-0.10156h-70c-26.211 0-46.121-0.046875-62.582 1.8125-16.465 1.8594-30.918 5.8867-41.598 16.578-10.676 10.691-14.695 25.145-16.543 41.598s-1.7773 36.34-1.7773 62.516v175c0 6.2305 0.082031 11.055 0.10156 16.613-8.5195-0.69531-15.668-1.5938-19.824-2.9414-6.1055-1.9766-7.2578-3.1211-9.2617-6.7695-4.0078-7.2969-6.0156-31.98-6.0156-76.527v-0.17188-0.20312-175c0-26.164 0.10938-45.57 1.5742-58.617 1.4648-13.047 4.0234-18.309 6.4922-20.781 2.4727-2.4766 7.7305-5.0547 20.781-6.5273 13.051-1.4727 32.461-1.5742 58.652-1.5742zm70 70h70c26.164 0 45.57 0.10938 58.617 1.5742 13.047 1.4648 18.309 4.0234 20.781 6.4922 2.4766 2.4727 5.0547 7.7305 6.5273 20.781 1.4727 13.051 1.5742 32.461 1.5742 58.652v175c0 26.164-0.10938 45.57-1.5742 58.617-1.4648 13.047-4.0234 18.309-6.4922 20.781-2.4727 2.4766-7.7305 5.0547-20.781 6.5273-13.051 1.4727-32.461 1.5742-58.652 1.5742h-70c-26.164 0-45.57-0.10938-58.617-1.5742-13.047-1.4648-18.309-4.0234-20.781-6.4922-2.4766-2.4727-5.0547-7.7305-6.5273-20.781-1.4727-13.051-1.5742-32.461-1.5742-58.652v-175c0-26.164 0.10938-45.57 1.5742-58.617 1.4648-13.047 4.0234-18.309 6.4922-20.781 2.4727-2.4766 7.7305-5.0547 20.781-6.5273 13.051-1.4727 32.461-1.5742 58.652-1.5742z" id="svg_1" class="selected" fill="#6f748b" fill-opacity="1"/></g></svg>